<mxfile host="app.diagrams.net" modified="2023-12-30T07:55:37.661Z" agent="Mozilla/5.0 (Windows NT 10.0; Win64; x64) AppleWebKit/537.36 (KHTML, like Gecko) Chrome/120.0.0.0 Safari/537.36 Edg/120.0.0.0" etag="l7KJKtG12xAqfz4QpF1C" version="22.1.16" type="github">
  <diagram name="Page-1" id="bfe91b75-5d2c-26a0-9c1d-138518896778">
    <mxGraphModel dx="3684" dy="2082" grid="1" gridSize="10" guides="1" tooltips="1" connect="1" arrows="1" fold="1" page="1" pageScale="1" pageWidth="1100" pageHeight="850" background="none" math="0" shadow="0">
      <root>
        <mxCell id="0" />
        <mxCell id="1" parent="0" />
        <mxCell id="7c3789c024ecab99-82" value="방1" style="rounded=1;whiteSpace=wrap;html=1;shadow=0;comic=0;strokeColor=#036897;strokeWidth=2;fillColor=none;fontFamily=Verdana;fontSize=28;fontColor=#6881B3;align=center;arcSize=11;verticalAlign=top;" parent="1" vertex="1">
          <mxGeometry x="78" y="1355" width="1065" height="420" as="geometry" />
        </mxCell>
        <mxCell id="7c3789c024ecab99-81" value="주방" style="rounded=1;whiteSpace=wrap;html=1;shadow=0;comic=0;strokeColor=#036897;strokeWidth=2;fillColor=none;fontFamily=Verdana;fontSize=28;fontColor=#6881B3;align=center;arcSize=11;verticalAlign=top;" parent="1" vertex="1">
          <mxGeometry x="75" y="900" width="1065" height="420" as="geometry" />
        </mxCell>
        <mxCell id="7c3789c024ecab99-78" value="내방" style="rounded=1;whiteSpace=wrap;html=1;shadow=0;comic=0;strokeColor=#036897;strokeWidth=2;fillColor=none;fontFamily=Verdana;fontSize=28;fontColor=#6881B3;align=center;arcSize=11;verticalAlign=top;" parent="1" vertex="1">
          <mxGeometry x="75" y="20" width="1065" height="420" as="geometry" />
        </mxCell>
        <mxCell id="7c3789c024ecab99-55" style="edgeStyle=none;html=1;labelBackgroundColor=none;endArrow=none;endFill=0;strokeWidth=2;fontFamily=Verdana;fontSize=28;fontColor=#6881B3;" parent="1" source="7c3789c024ecab99-8" target="7c3789c024ecab99-54" edge="1">
          <mxGeometry relative="1" as="geometry">
            <mxPoint x="1660" y="837.0000000000002" as="targetPoint" />
          </mxGeometry>
        </mxCell>
        <mxCell id="7c3789c024ecab99-8" value="" style="fontColor=#0066CC;verticalAlign=top;verticalLabelPosition=bottom;labelPosition=center;align=center;html=1;fillColor=#CCCCCC;strokeColor=#6881B3;gradientColor=none;gradientDirection=north;strokeWidth=2;shape=mxgraph.networks.firewall;rounded=0;shadow=0;comic=0;" parent="1" vertex="1">
          <mxGeometry x="1490" y="847" width="100" height="100" as="geometry" />
        </mxCell>
        <mxCell id="7c3789c024ecab99-18" style="edgeStyle=orthogonalEdgeStyle;html=1;labelBackgroundColor=none;endArrow=none;endFill=0;strokeWidth=2;fontFamily=Verdana;fontSize=15;fontColor=#036897;" parent="1" source="7c3789c024ecab99-9" target="7c3789c024ecab99-10" edge="1">
          <mxGeometry relative="1" as="geometry">
            <mxPoint x="1110" y="310" as="targetPoint" />
            <Array as="points">
              <mxPoint x="1370" y="192" />
            </Array>
          </mxGeometry>
        </mxCell>
        <mxCell id="7c3789c024ecab99-52" style="edgeStyle=none;html=1;labelBackgroundColor=none;endArrow=none;endFill=0;strokeWidth=2;fontFamily=Verdana;fontSize=15;fontColor=#036897;" parent="1" source="7c3789c024ecab99-10" target="7c3789c024ecab99-8" edge="1">
          <mxGeometry relative="1" as="geometry">
            <mxPoint x="1549.9999999999995" y="917" as="targetPoint" />
          </mxGeometry>
        </mxCell>
        <mxCell id="7c3789c024ecab99-10" value="" style="fontColor=#0066CC;verticalAlign=top;verticalLabelPosition=bottom;labelPosition=center;align=center;html=1;fillColor=#CCCCCC;strokeColor=#6881B3;gradientColor=none;gradientDirection=north;strokeWidth=2;shape=mxgraph.networks.router;rounded=0;shadow=0;comic=0;" parent="1" vertex="1">
          <mxGeometry x="1300" y="882" width="100" height="30" as="geometry" />
        </mxCell>
        <mxCell id="7c3789c024ecab99-6" value="" style="fontColor=#0066CC;verticalAlign=top;verticalLabelPosition=bottom;labelPosition=center;align=center;html=1;fillColor=#CCCCCC;strokeColor=#6881B3;gradientColor=none;gradientDirection=north;strokeWidth=2;shape=mxgraph.networks.printer;rounded=0;shadow=0;comic=0;" parent="1" vertex="1">
          <mxGeometry x="880.0000000000002" y="1174.9999999999998" width="100" height="100" as="geometry" />
        </mxCell>
        <mxCell id="7c3789c024ecab99-9" value="" style="fontColor=#0066CC;verticalAlign=top;verticalLabelPosition=bottom;labelPosition=center;align=center;html=1;fillColor=#CCCCCC;strokeColor=#6881B3;gradientColor=none;gradientDirection=north;strokeWidth=2;shape=mxgraph.networks.wireless_hub;rounded=0;shadow=0;comic=0;" parent="1" vertex="1">
          <mxGeometry x="670.0000000000002" y="120" width="100" height="85" as="geometry" />
        </mxCell>
        <mxCell id="7c3789c024ecab99-13" style="edgeStyle=none;html=1;labelBackgroundColor=none;endArrow=none;endFill=0;strokeWidth=2;fontFamily=Verdana;fontSize=15;fontColor=#036897;entryX=0.007;entryY=0.863;entryDx=0;entryDy=0;entryPerimeter=0;" parent="1" source="H94UVq5_yCnzTkwn4PpR-14" target="7c3789c024ecab99-9" edge="1">
          <mxGeometry relative="1" as="geometry">
            <mxPoint x="650.0000000000002" y="240" as="targetPoint" />
            <mxPoint x="530.0000000000005" y="162.5" as="sourcePoint" />
          </mxGeometry>
        </mxCell>
        <mxCell id="7c3789c024ecab99-50" style="edgeStyle=orthogonalEdgeStyle;html=1;labelBackgroundColor=none;endArrow=none;endFill=0;strokeWidth=2;fontFamily=Verdana;fontSize=15;fontColor=#036897;" parent="1" target="7c3789c024ecab99-10" edge="1">
          <mxGeometry relative="1" as="geometry">
            <mxPoint x="1079.9999999999995" y="410" as="targetPoint" />
            <mxPoint x="770" y="650" as="sourcePoint" />
            <Array as="points">
              <mxPoint x="1340" y="650" />
            </Array>
          </mxGeometry>
        </mxCell>
        <mxCell id="7c3789c024ecab99-51" style="edgeStyle=orthogonalEdgeStyle;html=1;labelBackgroundColor=none;endArrow=none;endFill=0;strokeWidth=2;fontFamily=Verdana;fontSize=15;fontColor=#036897;" parent="1" source="7c3789c024ecab99-44" target="7c3789c024ecab99-10" edge="1">
          <mxGeometry relative="1" as="geometry">
            <mxPoint x="1180" y="430" as="targetPoint" />
            <Array as="points">
              <mxPoint x="1340" y="1080" />
            </Array>
          </mxGeometry>
        </mxCell>
        <mxCell id="7c3789c024ecab99-44" value="" style="fontColor=#0066CC;verticalAlign=top;verticalLabelPosition=bottom;labelPosition=center;align=center;html=1;fillColor=#CCCCCC;strokeColor=#6881B3;gradientColor=none;gradientDirection=north;strokeWidth=2;shape=mxgraph.networks.wireless_hub;rounded=0;shadow=0;comic=0;" parent="1" vertex="1">
          <mxGeometry x="670.0000000000002" y="1009.4117647058824" width="100" height="85" as="geometry" />
        </mxCell>
        <mxCell id="7c3789c024ecab99-45" value="" style="html=1;fillColor=#CCCCCC;strokeColor=#6881B3;gradientColor=none;gradientDirection=north;strokeWidth=2;shape=mxgraph.networks.comm_link_edge;html=1;labelBackgroundColor=none;endArrow=none;endFill=0;fontFamily=Verdana;fontSize=20;" parent="1" target="7c3789c024ecab99-46" edge="1">
          <mxGeometry width="100" height="100" relative="1" as="geometry">
            <mxPoint x="670" y="1040" as="sourcePoint" />
            <mxPoint x="603.0000000000002" y="1022.4117647058824" as="targetPoint" />
          </mxGeometry>
        </mxCell>
        <mxCell id="7c3789c024ecab99-46" value="" style="fontColor=#0066CC;verticalAlign=top;verticalLabelPosition=bottom;labelPosition=center;align=center;html=1;fillColor=#CCCCCC;strokeColor=#6881B3;gradientColor=none;gradientDirection=north;strokeWidth=2;shape=mxgraph.networks.mobile;rounded=0;shadow=0;comic=0;" parent="1" vertex="1">
          <mxGeometry x="320.0000000000002" y="919.4117647058824" width="50" height="100" as="geometry" />
        </mxCell>
        <mxCell id="7c3789c024ecab99-53" value="Internet" style="html=1;fillColor=#CCCCCC;strokeColor=#6881B3;gradientColor=none;gradientDirection=north;strokeWidth=2;shape=mxgraph.networks.cloud;fontColor=#6881B3;rounded=0;shadow=0;comic=0;align=center;fontSize=28;" parent="1" vertex="1">
          <mxGeometry x="1760" y="689" width="330" height="140" as="geometry" />
        </mxCell>
        <mxCell id="7c3789c024ecab99-56" style="edgeStyle=none;html=1;labelBackgroundColor=none;endArrow=none;endFill=0;strokeWidth=2;fontFamily=Verdana;fontSize=28;fontColor=#6881B3;" parent="1" source="7c3789c024ecab99-54" target="7c3789c024ecab99-53" edge="1">
          <mxGeometry relative="1" as="geometry" />
        </mxCell>
        <mxCell id="7c3789c024ecab99-77" style="edgeStyle=none;html=1;labelBackgroundColor=none;endArrow=none;endFill=0;strokeWidth=2;fontFamily=Verdana;fontSize=28;fontColor=#6881B3;" parent="1" source="7c3789c024ecab99-54" target="7c3789c024ecab99-76" edge="1">
          <mxGeometry relative="1" as="geometry" />
        </mxCell>
        <mxCell id="7c3789c024ecab99-54" value="" style="fontColor=#0066CC;verticalAlign=top;verticalLabelPosition=bottom;labelPosition=center;align=center;html=1;fillColor=#CCCCCC;strokeColor=#6881B3;gradientColor=none;gradientDirection=north;strokeWidth=2;shape=mxgraph.networks.router;rounded=0;shadow=0;comic=0;" parent="1" vertex="1">
          <mxGeometry x="1640" y="882" width="100" height="30" as="geometry" />
        </mxCell>
        <mxCell id="7c3789c024ecab99-60" style="edgeStyle=none;html=1;labelBackgroundColor=none;endArrow=none;endFill=0;strokeWidth=2;fontFamily=Verdana;fontSize=28;fontColor=#6881B3;" parent="1" source="7c3789c024ecab99-57" target="7c3789c024ecab99-54" edge="1">
          <mxGeometry relative="1" as="geometry" />
        </mxCell>
        <mxCell id="7c3789c024ecab99-57" value="" style="fontColor=#0066CC;verticalAlign=top;verticalLabelPosition=bottom;labelPosition=center;align=center;html=1;fillColor=#CCCCCC;strokeColor=#6881B3;gradientColor=none;gradientDirection=north;strokeWidth=2;shape=mxgraph.networks.storage;rounded=0;shadow=0;comic=0;" parent="1" vertex="1">
          <mxGeometry x="1510" y="1079" width="100" height="100" as="geometry" />
        </mxCell>
        <mxCell id="7c3789c024ecab99-59" style="edgeStyle=none;html=1;labelBackgroundColor=none;endArrow=none;endFill=0;strokeWidth=2;fontFamily=Verdana;fontSize=28;fontColor=#6881B3;" parent="1" source="7c3789c024ecab99-58" target="7c3789c024ecab99-54" edge="1">
          <mxGeometry relative="1" as="geometry">
            <mxPoint x="1570" y="827" as="targetPoint" />
          </mxGeometry>
        </mxCell>
        <mxCell id="7c3789c024ecab99-58" value="" style="fontColor=#0066CC;verticalAlign=top;verticalLabelPosition=bottom;labelPosition=center;align=center;html=1;fillColor=#CCCCCC;strokeColor=#6881B3;gradientColor=none;gradientDirection=north;strokeWidth=2;shape=mxgraph.networks.server_storage;rounded=0;shadow=0;comic=0;" parent="1" vertex="1">
          <mxGeometry x="1540" y="605" width="105" height="105" as="geometry" />
        </mxCell>
        <mxCell id="7c3789c024ecab99-75" style="edgeStyle=orthogonalEdgeStyle;html=1;labelBackgroundColor=none;endArrow=none;endFill=0;strokeWidth=2;fontFamily=Verdana;fontSize=28;fontColor=#6881B3;" parent="1" source="7c3789c024ecab99-67" target="7c3789c024ecab99-10" edge="1">
          <mxGeometry relative="1" as="geometry">
            <mxPoint x="1240" y="760" as="targetPoint" />
            <Array as="points">
              <mxPoint x="1370" y="1552" />
            </Array>
          </mxGeometry>
        </mxCell>
        <mxCell id="7c3789c024ecab99-67" value="" style="fontColor=#0066CC;verticalAlign=top;verticalLabelPosition=bottom;labelPosition=center;align=center;html=1;fillColor=#CCCCCC;strokeColor=#6881B3;gradientColor=none;gradientDirection=north;strokeWidth=2;shape=mxgraph.networks.wireless_hub;rounded=0;shadow=0;comic=0;" parent="1" vertex="1">
          <mxGeometry x="670.0000000000002" y="1480.4117647058824" width="100" height="85" as="geometry" />
        </mxCell>
        <mxCell id="7c3789c024ecab99-73" value="" style="html=1;fillColor=#CCCCCC;strokeColor=#6881B3;gradientColor=none;gradientDirection=north;strokeWidth=2;shape=mxgraph.networks.comm_link_edge;html=1;labelBackgroundColor=none;endArrow=none;endFill=0;fontFamily=Verdana;fontSize=20;" parent="1" source="7c3789c024ecab99-67" target="7c3789c024ecab99-74" edge="1">
          <mxGeometry width="100" height="100" relative="1" as="geometry">
            <mxPoint x="900.0000000000002" y="1580.4117647058824" as="sourcePoint" />
            <mxPoint x="603.0000000000002" y="1493.4117647058824" as="targetPoint" />
          </mxGeometry>
        </mxCell>
        <mxCell id="7c3789c024ecab99-74" value="" style="fontColor=#0066CC;verticalAlign=top;verticalLabelPosition=bottom;labelPosition=center;align=center;html=1;fillColor=#CCCCCC;strokeColor=#6881B3;gradientColor=none;gradientDirection=north;strokeWidth=2;shape=mxgraph.networks.mobile;rounded=0;shadow=0;comic=0;" parent="1" vertex="1">
          <mxGeometry x="320.0000000000002" y="1390.4117647058824" width="50" height="100" as="geometry" />
        </mxCell>
        <mxCell id="7c3789c024ecab99-76" value="Campus 2" style="html=1;fillColor=#CCCCCC;strokeColor=#6881B3;gradientColor=none;gradientDirection=north;strokeWidth=2;shape=mxgraph.networks.cloud;fontColor=#6881B3;rounded=0;shadow=0;comic=0;align=center;fontSize=28;" parent="1" vertex="1">
          <mxGeometry x="1740" y="1044" width="330" height="140" as="geometry" />
        </mxCell>
        <mxCell id="H94UVq5_yCnzTkwn4PpR-1" value="192.168.35.1" style="text;html=1;strokeColor=none;fillColor=none;align=center;verticalAlign=middle;whiteSpace=wrap;rounded=0;" vertex="1" parent="1">
          <mxGeometry x="660" y="147.5" width="60" height="30" as="geometry" />
        </mxCell>
        <mxCell id="H94UVq5_yCnzTkwn4PpR-2" value="192.168.0.xxx" style="text;html=1;strokeColor=none;fillColor=none;align=center;verticalAlign=middle;whiteSpace=wrap;rounded=0;" vertex="1" parent="1">
          <mxGeometry x="910" y="1275" width="60" height="30" as="geometry" />
        </mxCell>
        <mxCell id="H94UVq5_yCnzTkwn4PpR-3" value="" style="html=1;fillColor=#CCCCCC;strokeColor=#6881B3;gradientColor=none;gradientDirection=north;strokeWidth=2;shape=mxgraph.networks.comm_link_edge;html=1;labelBackgroundColor=none;endArrow=none;endFill=0;fontFamily=Verdana;fontSize=20;exitX=0.213;exitY=0.199;exitDx=0;exitDy=0;exitPerimeter=0;" edge="1" parent="1">
          <mxGeometry width="100" height="100" relative="1" as="geometry">
            <mxPoint x="760.0000000000002" y="1115.02" as="sourcePoint" />
            <mxPoint x="887" y="1193" as="targetPoint" />
          </mxGeometry>
        </mxCell>
        <mxCell id="H94UVq5_yCnzTkwn4PpR-4" value="192.168.0.1" style="text;html=1;strokeColor=none;fillColor=none;align=center;verticalAlign=middle;whiteSpace=wrap;rounded=0;" vertex="1" parent="1">
          <mxGeometry x="690" y="690" width="60" height="30" as="geometry" />
        </mxCell>
        <mxCell id="H94UVq5_yCnzTkwn4PpR-5" value="" style="fontColor=#0066CC;verticalAlign=top;verticalLabelPosition=bottom;labelPosition=center;align=center;html=1;fillColor=#CCCCCC;strokeColor=#6881B3;gradientColor=none;gradientDirection=north;strokeWidth=2;shape=mxgraph.networks.mobile;rounded=0;shadow=0;comic=0;" vertex="1" parent="1">
          <mxGeometry x="320.0000000000002" y="1040.0017647058824" width="50" height="100" as="geometry" />
        </mxCell>
        <mxCell id="H94UVq5_yCnzTkwn4PpR-6" value="" style="fontColor=#0066CC;verticalAlign=top;verticalLabelPosition=bottom;labelPosition=center;align=center;html=1;fillColor=#CCCCCC;strokeColor=#6881B3;gradientColor=none;gradientDirection=north;strokeWidth=2;shape=mxgraph.networks.mobile;rounded=0;shadow=0;comic=0;" vertex="1" parent="1">
          <mxGeometry x="320.0000000000002" y="1170.0017647058824" width="50" height="100" as="geometry" />
        </mxCell>
        <mxCell id="H94UVq5_yCnzTkwn4PpR-7" value="" style="html=1;fillColor=#CCCCCC;strokeColor=#6881B3;gradientColor=none;gradientDirection=north;strokeWidth=2;shape=mxgraph.networks.comm_link_edge;html=1;labelBackgroundColor=none;endArrow=none;endFill=0;fontFamily=Verdana;fontSize=20;" edge="1" parent="1">
          <mxGeometry width="100" height="100" relative="1" as="geometry">
            <mxPoint x="644" y="1091" as="sourcePoint" />
            <mxPoint x="370" y="1080.16" as="targetPoint" />
          </mxGeometry>
        </mxCell>
        <mxCell id="H94UVq5_yCnzTkwn4PpR-8" value="" style="html=1;fillColor=#CCCCCC;strokeColor=#6881B3;gradientColor=none;gradientDirection=north;strokeWidth=2;shape=mxgraph.networks.comm_link_edge;html=1;labelBackgroundColor=none;endArrow=none;endFill=0;fontFamily=Verdana;fontSize=20;" edge="1" parent="1">
          <mxGeometry width="100" height="100" relative="1" as="geometry">
            <mxPoint x="659" y="1116" as="sourcePoint" />
            <mxPoint x="373" y="1215" as="targetPoint" />
          </mxGeometry>
        </mxCell>
        <mxCell id="H94UVq5_yCnzTkwn4PpR-9" value="TP-Link Archer C80" style="text;html=1;strokeColor=none;fillColor=none;align=center;verticalAlign=middle;whiteSpace=wrap;rounded=0;" vertex="1" parent="1">
          <mxGeometry x="660" y="979.41" width="140" height="30" as="geometry" />
        </mxCell>
        <mxCell id="H94UVq5_yCnzTkwn4PpR-10" value="" style="fontColor=#0066CC;verticalAlign=top;verticalLabelPosition=bottom;labelPosition=center;align=center;html=1;outlineConnect=0;fillColor=#CCCCCC;strokeColor=#6881B3;gradientColor=none;gradientDirection=north;strokeWidth=2;shape=mxgraph.networks.monitor;" vertex="1" parent="1">
          <mxGeometry x="690" y="610" width="80" height="65" as="geometry" />
        </mxCell>
        <mxCell id="H94UVq5_yCnzTkwn4PpR-11" value="거실 TV" style="text;html=1;strokeColor=none;fillColor=none;align=center;verticalAlign=middle;whiteSpace=wrap;rounded=0;" vertex="1" parent="1">
          <mxGeometry x="660" y="575" width="140" height="30" as="geometry" />
        </mxCell>
        <mxCell id="H94UVq5_yCnzTkwn4PpR-12" value="SKT Router" style="text;html=1;strokeColor=none;fillColor=none;align=center;verticalAlign=middle;whiteSpace=wrap;rounded=0;" vertex="1" parent="1">
          <mxGeometry x="1190" y="882" width="140" height="30" as="geometry" />
        </mxCell>
        <mxCell id="H94UVq5_yCnzTkwn4PpR-13" value="IPTV / VLAN" style="text;html=1;strokeColor=none;fillColor=none;align=center;verticalAlign=middle;whiteSpace=wrap;rounded=0;" vertex="1" parent="1">
          <mxGeometry x="780" y="620" width="140" height="30" as="geometry" />
        </mxCell>
        <mxCell id="H94UVq5_yCnzTkwn4PpR-14" value="" style="fontColor=#0066CC;verticalAlign=top;verticalLabelPosition=bottom;labelPosition=center;align=center;html=1;outlineConnect=0;fillColor=#CCCCCC;strokeColor=#6881B3;gradientColor=none;gradientDirection=north;strokeWidth=2;shape=mxgraph.networks.desktop_pc;" vertex="1" parent="1">
          <mxGeometry x="355" y="230" width="30" height="60" as="geometry" />
        </mxCell>
        <mxCell id="H94UVq5_yCnzTkwn4PpR-15" value="" style="fontColor=#0066CC;verticalAlign=top;verticalLabelPosition=bottom;labelPosition=center;align=center;html=1;outlineConnect=0;fillColor=#CCCCCC;strokeColor=#6881B3;gradientColor=none;gradientDirection=north;strokeWidth=2;shape=mxgraph.networks.monitor;" vertex="1" parent="1">
          <mxGeometry x="330" y="100" width="80" height="65" as="geometry" />
        </mxCell>
        <mxCell id="H94UVq5_yCnzTkwn4PpR-16" value="" style="endArrow=none;html=1;rounded=0;entryX=0.02;entryY=0.847;entryDx=0;entryDy=0;entryPerimeter=0;" edge="1" parent="1" source="H94UVq5_yCnzTkwn4PpR-15" target="7c3789c024ecab99-9">
          <mxGeometry width="50" height="50" relative="1" as="geometry">
            <mxPoint x="1000" y="430" as="sourcePoint" />
            <mxPoint x="1050" y="380" as="targetPoint" />
          </mxGeometry>
        </mxCell>
        <mxCell id="H94UVq5_yCnzTkwn4PpR-18" value="192.168.35.xx" style="text;html=1;strokeColor=none;fillColor=none;align=center;verticalAlign=middle;whiteSpace=wrap;rounded=0;" vertex="1" parent="1">
          <mxGeometry x="340" y="165" width="60" height="30" as="geometry" />
        </mxCell>
        <mxCell id="H94UVq5_yCnzTkwn4PpR-19" value="192.168.35.xx" style="text;html=1;strokeColor=none;fillColor=none;align=center;verticalAlign=middle;whiteSpace=wrap;rounded=0;" vertex="1" parent="1">
          <mxGeometry x="340" y="290" width="60" height="30" as="geometry" />
        </mxCell>
        <mxCell id="H94UVq5_yCnzTkwn4PpR-20" value="" style="fontColor=#0066CC;verticalAlign=top;verticalLabelPosition=bottom;labelPosition=center;align=center;html=1;outlineConnect=0;fillColor=#CCCCCC;strokeColor=#6881B3;gradientColor=none;gradientDirection=north;strokeWidth=2;shape=mxgraph.networks.gamepad;" vertex="1" parent="1">
          <mxGeometry x="880" y="320" width="80" height="50" as="geometry" />
        </mxCell>
        <mxCell id="H94UVq5_yCnzTkwn4PpR-21" value="" style="html=1;fillColor=#CCCCCC;strokeColor=#6881B3;gradientColor=none;gradientDirection=north;strokeWidth=2;shape=mxgraph.networks.comm_link_edge;html=1;labelBackgroundColor=none;endArrow=none;endFill=0;fontFamily=Verdana;fontSize=20;" edge="1" parent="1">
          <mxGeometry width="100" height="100" relative="1" as="geometry">
            <mxPoint x="755" y="221" as="sourcePoint" />
            <mxPoint x="868" y="328" as="targetPoint" />
          </mxGeometry>
        </mxCell>
        <mxCell id="H94UVq5_yCnzTkwn4PpR-22" value="192.168.35.xx" style="text;html=1;strokeColor=none;fillColor=none;align=center;verticalAlign=middle;whiteSpace=wrap;rounded=0;" vertex="1" parent="1">
          <mxGeometry x="890" y="380" width="60" height="30" as="geometry" />
        </mxCell>
      </root>
    </mxGraphModel>
  </diagram>
</mxfile>
